/* XPM */
static const char * CLEARbutton[] = {
"64 64 3 1",
" 	c None",
".	c #000000",
"+	c #FF334C",
"                                                                ",
"                                                                ",
"                                                                ",
"                                                                ",
"                                                                ",
"                                                                ",
"                                                   ..           ",
"                                                   ..           ",
"                                    ++++++         ..           ",
"                                  +++++++++        ..      .    ",
"                                 +++++++++++              ..    ",
"                                ++++      +++            ..     ",
"                               ++++        +++                  ",
"                               +++         +++                  ",
"                               +++          +++     +++         ",
"                               +++          +++     +++         ",
"                           ++++++++++       +++     +++    .....",
"                           ++++++++++       +++     ++     .....",
"                           ++++++++++        +++++++++          ",
"                           ++++++++++        ++++++++           ",
"                          ++++++++++++         +++++            ",
"                       ++++++++++++++++++                       ",
"                      ++++++++++++++++++++                      ",
"                     ++++++++++++++++++++++                     ",
"                   ++++++++++++++++++++++++++                   ",
"                  ++++++++++++++++++++++++++++                  ",
"                  ++++++++++++++++++++++++++++                  ",
"                 ++++++++++++++++++++++++++++++                 ",
"                ++++++++++++++++++++++++++++++++                ",
"                ++++++++++++++++++++++++++++++++                ",
"               ++++++++++++++++++++++++++++++++++               ",
"               ++++++++++++++++++++++++++++++++++               ",
"               ++++++++++++++++++++++++++++++++++               ",
"              ++++++++++++++++++++++++++++++++++++              ",
"              ++++++++++++++++++++++++++++++++++++              ",
"              ++++++++++++++++++++++++++++++++++++              ",
"              ++++++++++++++++++++++++++++++++++++              ",
"              ++++++++++++++++++++++++++++++++++++              ",
"              ++++++++++++++++++++++++++++++++++++              ",
"              ++++++++++++++++++++++++++++++++++++              ",
"              ++++++++++++++++++++++++++++++++++++              ",
"              ++++++++++++++++++++++++++++++++++++              ",
"               ++++++++++++++++++++++++++++++++++               ",
"               ++++++++++++++++++++++++++++++++++               ",
"               ++++++++++++++++++++++++++++++++++               ",
"                ++++++++++++++++++++++++++++++++                ",
"                 ++++++++++++++++++++++++++++++                 ",
"                 ++++++++++++++++++++++++++++++                 ",
"                  ++++++++++++++++++++++++++++                  ",
"                   ++++++++++++++++++++++++++                   ",
"                    ++++++++++++++++++++++++                    ",
"                     ++++++++++++++++++++++                     ",
"                      ++++++++++++++++++++                      ",
"                        ++++++++++++++++                        ",
"                          ++++++++++++                          ",
"                                                                ",
"                                                                ",
"                                                                ",
"                                                                ",
"                                                                ",
"                                                                ",
"                                                                ",
"                                                                ",
"                                                                "};
