/* XPM */
static const char * NEXTbutton[] = {
"64 64 2 1",
" 	c None",
".	c #338AFF",
"                                                                ",
"                                                                ",
"                                                                ",
"                                                                ",
"                                                                ",
"                                                                ",
"                                 .                              ",
"                                ...                             ",
"                                ....                            ",
"                                .....                           ",
"                                ......                          ",
"                                .......                         ",
"                                ........                        ",
"                                .........                       ",
"                                ..........                      ",
"                                ...........                     ",
"                                ............                    ",
"                                .............                   ",
"                                ..............                  ",
"                                ...............                 ",
"          ......................................                ",
"        .........................................               ",
"       ...........................................              ",
"      .............................................             ",
"      ..............................................            ",
"      ...............................................           ",
"     .................................................          ",
"     ..................................................         ",
"     ...................................................        ",
"     ....................................................       ",
"     .....................................................      ",
"     .....................................................      ",
"     .....................................................      ",
"     .....................................................      ",
"     ....................................................       ",
"     ...................................................        ",
"     ..................................................         ",
"     .................................................          ",
"      ...............................................           ",
"      ..............................................            ",
"      .............................................             ",
"       ...........................................              ",
"        .........................................               ",
"          ......................................                ",
"                                ...............                 ",
"                                ..............                  ",
"                                .............                   ",
"                                ............                    ",
"                                ...........                     ",
"                                ..........                      ",
"                                .........                       ",
"                                ........                        ",
"                                .......                         ",
"                                ......                          ",
"                                .....                           ",
"                                ....                            ",
"                                ...                             ",
"                                 .                              ",
"                                                                ",
"                                                                ",
"                                                                ",
"                                                                ",
"                                                                ",
"                                                                "};
