/* XPM */
static const char * PAUSEbutton[] = {
"64 64 6 1",
" 	c None",
".	c #000000",
"+	c #000000",
"@	c #000000",
"#	c #000000",
"$	c #000000",
"                                                                ",
"                                                                ",
"                                                                ",
"                                                                ",
"                                                                ",
"                                                                ",
"                                                                ",
"                                                                ",
"                                                                ",
"                                                                ",
"                    $$$$$$            $$$$$$                    ",
"                   $$$$$$$$          $$$$$$$$                   ",
"                  $$$$$$$$$$        $$$$$$$$$$                  ",
"                  $$$$$$$$$$        $$$$$$$$$$                  ",
"                  $$$$$$$$$$        $$$$$$$$$$                  ",
"                  $$$$$$$$$$        $$$$$$$$$$                  ",
"                  $$$$$$$$$$        $$$$$$$$$$                  ",
"                  $$$$$$$$$$        $$$$$$$$$$                  ",
"                  $$$$$$$$$$        $$$$$$$$$$                  ",
"                  $$$$$$$$$$        $$$$$$$$$$                  ",
"                  $$$$$$$$$$        $$$$$$$$$$                  ",
"                  $$$$$$$$$$        $$$$$$$$$$                  ",
"                  $$$$$$$$$$        $$$$$$$$$$                  ",
"                  $$$$$$$$$$        $$$$$$$$$$                  ",
"                  $$$$$$$$$$        $$$$$$$$$$                  ",
"                  $$$$$$$$$$        $$$$$$$$$$                  ",
"                  $$$$$$$$$$        $$$$$$$$$$                  ",
"                  $$$$$$$$$$        $$$$$$$$$$                  ",
"                  $$$$$$$$$$        $$$$$$$$$$                  ",
"                  $$$$$$$$$$        $$$$$$$$$$                  ",
"                  $$$$$$$$$$        $$$$$$$$$$                  ",
"                  $$$$$$$$$$        $$$$$$$$$$                  ",
"                  $$$$$$$$$$        $$$$$$$$$$                  ",
"                  $$$$$$$$$$        $$$$$$$$$$                  ",
"                  $$$$$$$$$$        $$$$$$$$$$                  ",
"                  $$$$$$$$$$        $$$$$$$$$$                  ",
"                  $$$$$$$$$$        $$$$$$$$$$                  ",
"                  $$$$$$$$$$        $$$$$$$$$$                  ",
"                  $$$$$$$$$$        $$$$$$$$$$                  ",
"                  $$$$$$$$$$        $$$$$$$$$$                  ",
"                  $$$$$$$$$$        $$$$$$$$$$                  ",
"                  $$$$$$$$$$        $$$$$$$$$$                  ",
"                  $$$$$$$$$$        $$$$$$$$$$                  ",
"                  $$$$$$$$$$        $$$$$$$$$$                  ",
"                  $$$$$$$$$$        $$$$$$$$$$                  ",
"                  $$$$$$$$$$        $$$$$$$$$$                  ",
"                  $$$$$$$$$$        $$$$$$$$$$                  ",
"                  $$$$$$$$$$        $$$$$$$$$$                  ",
"                  $$$$$$$$$$        $$$$$$$$$$                  ",
"                  $$$$$$$$$$        $$$$$$$$$$                  ",
"                  $$$$$$$$$$        $$$$$$$$$$                  ",
"                  $$$$$$$$$$        $$$$$$$$$$                  ",
"                   $$$$$$$$          $$$$$$$$                   ",
"                    $$$$$$            $$$$$$                    ",
"                                                                ",
"                                                                ",
"                                                                ",
"                                                                ",
"                                                                ",
"                                                                ",
"                                                                ",
"                                                                ",
"                                                                ",
"                                                                "};
