/* XPM */
static const char * PLAYbutton[] = {
"64 64 2 1",
" 	c None",
".	c #4AFF33",
"                                                                ",
"                                                                ",
"                                                                ",
"                                                                ",
"                                                                ",
"                                                                ",
"                                                                ",
"                                                                ",
"                                                                ",
"                                                                ",
"                                                                ",
"                                                                ",
"            ..                                                  ",
"            ....                                                ",
"            ......                                              ",
"            ........                                            ",
"            ..........                                          ",
"            ............                                        ",
"            ..............                                      ",
"            ................                                    ",
"            ..................                                  ",
"            ....................                                ",
"            ......................                              ",
"            ........................                            ",
"            ..........................                          ",
"            ............................                        ",
"            ..............................                      ",
"            ................................                    ",
"            ..................................                  ",
"            ....................................                ",
"            ......................................              ",
"            ........................................            ",
"            ........................................            ",
"            ......................................              ",
"            ....................................                ",
"            ..................................                  ",
"            ................................                    ",
"            ..............................                      ",
"            ............................                        ",
"            ..........................                          ",
"            ........................                            ",
"            ......................                              ",
"            ....................                                ",
"            ..................                                  ",
"            ................                                    ",
"            ..............                                      ",
"            ............                                        ",
"            ..........                                          ",
"            ........                                            ",
"            ......                                              ",
"            ....                                                ",
"            ..                                                  ",
"                                                                ",
"                                                                ",
"                                                                ",
"                                                                ",
"                                                                ",
"                                                                ",
"                                                                ",
"                                                                ",
"                                                                ",
"                                                                ",
"                                                                ",
"                                                                "};
